<svg width="12" height="12" viewBox="0 0 12 12" fill="none" xmlns="http://www.w3.org/2000/svg">
<path d="M9.26672 9.23997H2.73338V3.95998H9.26672M7.86672 0.599976V1.55998H4.13338V0.599976H3.20005V1.55998H2.73338C2.21538 1.55998 1.80005 1.98718 1.80005 2.51998V9.23997C1.80005 9.49458 1.89838 9.73876 2.07342 9.9188C2.24845 10.0988 2.48585 10.2 2.73338 10.2H9.26672C9.51425 10.2 9.75165 10.0988 9.92668 9.9188C10.1017 9.73876 10.2001 9.49458 10.2001 9.23997V2.51998C10.2001 2.26537 10.1017 2.02119 9.92668 1.84115C9.75165 1.66112 9.51425 1.55998 9.26672 1.55998H8.80005V0.599976M8.33338 6.87997C8.33338 6.32769 7.88567 5.87997 7.33338 5.87997H7.00005C6.44776 5.87997 6.00005 6.32769 6.00005 6.87997V7.27998C6.00005 7.83226 6.44776 8.27997 7.00005 8.27997H7.33338C7.88567 8.27997 8.33338 7.83226 8.33338 7.27997V6.87997Z" fill="#616161"/>
</svg>
