<svg width="18" height="16" viewBox="0 0 18 16" fill="none" xmlns="http://www.w3.org/2000/svg">
<path d="M13.1388 2.07792V2.82792H13.8888H15.8444C16.1489 2.82792 16.4509 2.95605 16.681 3.20054C16.9126 3.44656 17.0499 3.78946 17.0499 4.15584V6.52273H0.949951V4.15584C0.949951 3.78946 1.08735 3.44656 1.31889 3.20054C1.54898 2.95605 1.85097 2.82792 2.15551 2.82792H4.11106H4.86106V2.07792V1.03896C4.86106 0.948131 4.89544 0.869494 4.94361 0.81831L4.39745 0.304305L4.94361 0.818309C4.99033 0.768667 5.04362 0.75 5.08884 0.75C5.13406 0.75 5.18735 0.768667 5.23406 0.818309L5.77504 0.309189L5.23407 0.81831C5.28224 0.869494 5.31662 0.948131 5.31662 1.03896V2.07792V2.82792H6.06662H11.9333H12.6833V2.07792V1.03896C12.6833 0.948134 12.7177 0.869496 12.7658 0.818309C12.8126 0.768668 12.8658 0.75 12.9111 0.75C12.9563 0.75 13.0096 0.768668 13.0563 0.818309C13.1045 0.869494 13.1388 0.948132 13.1388 1.03896V2.07792Z" stroke="#616161" stroke-width="1.5"/>
<path d="M0.949951 6.56812H17.0499V13.9819C17.0499 14.3257 16.9174 14.6508 16.6886 14.8869C16.4606 15.1223 16.1564 15.2499 15.8444 15.2499H2.15551C1.84351 15.2499 1.53935 15.1223 1.31132 14.8869C1.08251 14.6508 0.949951 14.3257 0.949951 13.9819V6.56812Z" stroke="#616161" stroke-width="1.5"/>
</svg>
