<svg width="70" height="36" viewBox="0 0 70 36" fill="none" xmlns="http://www.w3.org/2000/svg">
<g clip-path="url(#clip0_2221_378)">
<rect width="70" height="36" fill="#141414"/>
<g clip-path="url(#clip1_2221_378)">
<path d="M43.705 14.5211L41.0591 26.0989H45.352L48.104 14.0361L43.705 14.5211Z" fill="white"/>
<path d="M57.8566 14.0125C56.577 13.8774 54.5806 14.3018 53.5941 15.1114C53.5715 14.6684 53.496 14.3203 53.4081 13.964L49.6084 14.465C49.7595 15.6072 49.6106 16.8747 49.2374 18.5802L47.5349 26.099H51.8278L53.585 18.4276C54.0153 17.7622 54.699 17.3172 55.277 17.3172C55.9922 17.3172 56.1668 17.8812 55.9449 18.8065L54.2954 26.099H58.5884L60.4306 18.1789C60.8697 16.032 60.2225 14.2625 57.8566 14.0125Z" fill="white"/>
<path d="M48.8085 10.7676C48.8085 9.5257 47.801 8.51392 46.5124 8.51392C45.2002 8.51392 44.1223 9.52561 44.1223 10.7676C44.1223 12.0092 45.1769 13.0217 46.442 13.0217C47.7538 13.0218 48.8085 12.0093 48.8085 10.7676Z" fill="#FFD300"/>
<path fill-rule="evenodd" clip-rule="evenodd" d="M38.5132 14.1609L37.1561 17.539C36.6539 18.8081 36.2136 20.0031 35.8271 21.1755L35.7743 14.1609H31.9003L28.691 21.2343L29.0383 13.9991L24.7703 14.5721L25.6336 26.0989H29.4087C29.4087 26.0989 32.2722 19.8796 32.5286 19.1596L32.5668 26.0989H36.4401L42.8311 14.1609H38.5132Z" fill="white"/>
<path fill-rule="evenodd" clip-rule="evenodd" d="M20.1483 13.8601C19.0337 13.8601 18.1991 14.1747 17.7077 14.4695C18.4097 12.1264 18.5663 9.96359 18.5663 9.96359L18.566 9.96386C18.5961 9.61277 18.6031 9.19517 18.5943 8.91968L14.0955 9.50855C14.1461 10.2855 14.0402 11.5137 13.4619 14.138L11.2907 23.8088C11.1921 24.2716 10.9455 25.1508 10.748 25.4745C12.1051 25.9605 13.6595 26.4 16.2252 26.4C17.6317 26.4 18.7419 26.1222 19.877 25.4049C21.8261 24.1789 23.0294 21.9713 23.5273 19.8294C24.4585 15.8253 22.9362 13.8601 20.1483 13.8601ZM19.0134 20.0378C18.5199 22.2587 17.8782 23.2534 16.7928 23.2534C16.3487 23.2534 15.9786 23.1375 15.7814 22.9758L16.9655 17.6778C17.1876 17.4696 17.5824 17.0993 18.224 17.0993C19.1862 17.0992 19.5314 17.6777 19.0134 20.0378Z" fill="white"/>
</g>
</g>
<defs>
<clipPath id="clip0_2221_378">
<rect width="70" height="36" rx="6" fill="white"/>
</clipPath>
<clipPath id="clip1_2221_378">
<rect width="50.1667" height="18" fill="white" transform="translate(10.5 8.40002)"/>
</clipPath>
</defs>
</svg>
