<svg width="70" height="36" viewBox="0 0 70 36" fill="none" xmlns="http://www.w3.org/2000/svg">
<rect width="70" height="36" rx="6" fill="#EDE72E"/>
<path fill-rule="evenodd" clip-rule="evenodd" d="M14.1431 27.1198H55.9851L59.0695 16.29H17.2275L14.1431 27.1198Z" fill="#0A0B09"/>
<path fill-rule="evenodd" clip-rule="evenodd" d="M10.9307 19.14H42.5678L45.5198 8.88025H13.8832L10.9307 19.14Z" fill="#0A0B09"/>
<path fill-rule="evenodd" clip-rule="evenodd" d="M26.762 18.4332L27.6313 20.9773L29.7516 18.4329H32.1864L30.3961 24.7968H28.5163L29.5487 21.1583L27.8005 23.2421H26.5919L25.9333 21.2745L24.9448 24.7968H16.8439L18.6342 18.4329H26.762V18.4332ZM38.2402 18.4332V24.7968H36.4323V23.7332H33.6871L33.0933 24.7968H30.9989L34.6956 18.4329H38.2402V18.4332ZM45.0969 18.4332L44.5867 20.2514H42.822L41.5433 24.7968H39.6635L40.9425 20.2511H38.8848L39.3949 18.4329H45.0969V18.4332ZM50.4498 18.4332L49.9306 20.2514H47.0842L46.3144 22.9785H49.1607L48.6505 24.7968H46.2875C44.8104 24.7968 44.1302 23.9332 44.5508 22.4422L45.2131 20.1149C45.5355 18.9692 46.2516 18.4329 47.4153 18.4329H50.4498V18.4332ZM53.1529 18.4332L52.5136 20.7057H54.662L55.3012 18.4329H57.1813L55.391 24.7968H53.5109L54.1504 22.5239H52.0021L51.3629 24.7968H49.4828L51.2731 18.4329H53.1531L53.1529 18.4332ZM36.4323 20.1602H35.6825L34.5502 22.1877H36.4323V20.1602ZM24.4256 11.1602C25.9027 11.1602 26.574 12.0602 26.1623 13.5148L25.9833 14.1417C25.6609 15.2874 24.945 15.8238 23.7811 15.8238H21.5651L21.0872 17.524H12.9861L14.7764 11.1602H24.4256ZM32.1328 11.1602V17.524H30.3246V16.4602H27.5797L26.9859 17.5238H24.8912L28.5879 11.1602H32.1325H32.1328ZM37.915 11.1602C39.3921 11.1602 40.0633 12.0419 39.6517 13.5148L39.4906 14.0876C39.2549 14.9312 38.8093 15.4396 38.1325 15.6525L38.6937 17.5238H36.7603L36.2339 15.7693H35.0699L34.5761 17.5238H32.6965L34.4868 11.1602H37.915ZM43.044 11.1602L41.2537 17.524H39.3742L41.1644 11.1602H43.044ZM30.3248 12.8872H29.5751L28.4431 14.9146H30.3248V12.8875V12.8872ZM24.4169 12.8784H22.394L22.0079 14.2512H24.0412L24.4172 12.8784H24.4169ZM37.9063 12.8784H35.8834L35.4973 14.2512H37.5306L37.9066 12.8784H37.9063Z" fill="#EDE72E"/>
</svg>
