<svg width="70" height="36" viewBox="0 0 70 36" fill="none" xmlns="http://www.w3.org/2000/svg">
<g clip-path="url(#clip0_2221_365)">
<rect width="70" height="36" fill="#14805E"/>
<g clip-path="url(#clip1_2221_365)">
<path d="M38.1515 21.1524C39.1568 21.1524 39.6777 20.8293 39.6777 20.1462C39.6777 19.4816 39.1385 19.117 38.0875 19.117C37.6991 19.117 37.2331 19.1447 36.7258 19.2185V16.9755C37.1462 17.0216 37.5346 17.0355 37.923 17.0355C39.006 17.0355 39.5452 16.7216 39.5452 16.0201C39.5452 15.3232 39.0517 14.9955 38.0281 14.9955C37.3701 14.9955 36.5294 15.1755 35.4967 15.4847V13.1539C36.4106 12.8401 37.5209 12.6924 38.8232 12.6924C41.6563 12.6924 43.2921 13.8924 43.2921 15.7662C43.2921 16.9201 42.529 17.7555 41.1902 18.037C42.6753 18.3324 43.4429 19.1447 43.4429 20.3862C43.4429 22.3339 41.7751 23.4693 38.5993 23.4693C37.5231 23.4604 36.4515 23.3272 35.4053 23.0724V20.6632C36.2927 20.9522 37.2152 21.1168 38.1469 21.1524H38.1515ZM49.9772 16.5324C52.2163 16.5324 53.6968 17.8755 53.6968 19.8555C53.6968 21.9785 52.0061 23.4555 49.3329 23.4555C46.1846 23.4555 44.1603 21.5216 44.1603 18.3462C44.1603 14.7324 46.308 12.6924 50.1737 12.6924C50.9962 12.6924 51.8827 12.7847 52.7966 12.9739V15.3232C51.9558 15.0693 51.1516 14.9539 50.2925 14.9539C48.5836 14.9539 47.7885 15.6324 47.7473 17.1693C48.3734 16.6939 49.0633 16.5324 49.9772 16.5324ZM50.2971 19.7816C50.2971 18.9232 49.799 18.3785 49.0816 18.3785C48.3597 18.3785 47.8799 18.9093 47.8799 19.7816C47.8799 20.6355 48.3597 21.1662 49.0816 21.1662C49.8127 21.1662 50.2925 20.6355 50.2925 19.7816H50.2971ZM54.8071 12.9601H62.1091V15.4062H58.2251V16.9616L58.8237 16.9293C61.2409 16.9293 62.5432 18.1293 62.5432 20.1462C62.5432 22.2278 60.953 23.4693 57.8504 23.4693C56.772 23.4693 55.7027 23.3078 54.6289 23.0401V20.7093C55.4514 20.9308 56.1734 21.0324 56.7857 21.0324C58.0469 21.0324 58.7049 20.617 58.7049 19.8508C58.7049 18.997 58.0195 18.5678 56.6029 18.5678C56.0089 18.5678 55.424 18.6693 54.8071 18.817V12.9601Z" fill="#FFDF1B"/>
<path d="M8.16675 12.1616H11.868V16.4401C12.3935 15.7478 13.1155 15.4201 14.0933 15.4201C16.241 15.4201 17.461 16.8693 17.461 19.4493C17.461 21.9047 16.2272 23.3724 14.1847 23.3724C12.9372 23.3724 12.0919 22.9293 11.6121 21.9785V23.2708H8.16675V12.157V12.1616ZM11.7629 19.3754C11.7629 20.497 12.0188 21.0462 12.6768 21.0462C13.3256 21.0462 13.6135 20.497 13.6135 19.3708C13.6135 18.2493 13.3394 17.7001 12.6814 17.7001C12.0188 17.7001 11.7629 18.2493 11.7629 19.3754ZM26.9197 20.2154H21.7928C21.8842 21.0601 22.5468 21.4616 23.7942 21.4616C24.6624 21.4616 25.5672 21.3001 26.4399 20.9724V22.9431C25.3478 23.3262 24.1959 23.506 23.0403 23.4739C19.8874 23.4739 18.183 21.997 18.183 19.3893C18.183 16.8416 19.8508 15.3139 22.6336 15.3139C25.718 15.3139 26.9197 16.7216 26.9197 19.7124V20.2201V20.2154ZM23.7029 18.7201V18.4893C23.7029 17.6124 23.3739 17.1047 22.7433 17.1047C22.0944 17.1047 21.7608 17.6124 21.7608 18.4985V18.7201H23.7029ZM32.3665 15.5216H34.0801V17.7878H32.3665V19.6385C32.3665 20.5893 32.5173 21.0324 33.253 21.0324C33.5164 21.0278 33.7784 20.9937 34.0344 20.9308V23.1462C33.2393 23.3862 32.4396 23.4739 31.5988 23.4739C30.5616 23.4739 29.7619 23.1508 29.3004 22.5878C28.6973 21.8493 28.6835 20.9124 28.6835 19.6708V17.7878H27.3721V15.5262H28.679V13.8001L32.3665 12.6601V15.5216Z" fill="white"/>
</g>
</g>
<defs>
<clipPath id="clip0_2221_365">
<rect width="70" height="36" rx="6" fill="white"/>
</clipPath>
<clipPath id="clip1_2221_365">
<rect width="54.8333" height="12" fill="white" transform="translate(8.16675 12)"/>
</clipPath>
</defs>
</svg>
