<svg width="130" height="130" viewBox="0 0 130 130" fill="none" xmlns="http://www.w3.org/2000/svg">
<g clip-path="url(#clip0_1_31288)">
<circle opacity="0.2" cx="65" cy="65" r="65" fill="#33B63C"/>
<circle cx="65" cy="66" r="50" fill="#33B63C"/>
<path d="M56.3593 93.9399C56.3395 93.9999 56.3196 94.0799 56.3196 94.1999C56.3395 94.0399 56.3593 93.9399 56.3593 93.9399Z" fill="#F5B219"/>
<path d="M85.0596 55.66C85.0596 55.66 87.7596 59.06 87.3596 62.42C87.3596 62.42 86.4996 59.16 84.0996 57.24C84.5396 60.3 84.3796 62.68 83.9396 64.52C86.3596 67.86 85.9996 72.28 85.9996 72.28C85.5796 69.6 84.1596 67.36 83.3796 66.3C82.3196 68.94 80.7796 69.9 80.7796 69.9C83.4396 78.08 78.7396 81.38 78.7396 81.38C78.6796 82.68 78.4196 83.46 78.2196 83.86C78.5596 85.08 78.4196 86.6 77.6196 88.32C77.6196 88.32 78.7196 84 75.7196 82.44C73.6796 81.38 70.9396 82.5 68.3796 82.06C65.2396 83.28 62.8796 82.4 61.9996 81.98C59.3196 82.62 56.4196 81.34 54.2596 82.44C51.2596 83.98 52.3596 88.32 52.3596 88.32C52.3596 88.32 50.2196 86.52 50.6196 82.52C50.6196 82.52 45.5796 79.76 47.8596 70.36C47.8596 70.36 46.7996 69.94 46.4596 68.46C46.4596 68.46 45.5796 68.12 44.5196 70.7C44.5196 70.7 43.7996 66.94 44.9396 62.8C44.9396 62.8 43.0996 63.28 41.6796 64.7C41.6796 64.7 40.8996 61.7 43.1796 57.64C40.3196 61.14 39.9796 65.38 39.8196 67.42C39.8196 67.42 41.4596 65.22 43.7996 64.16C43.7996 64.16 43.4196 64.86 42.9196 66.04C40.2196 72.78 41.1396 81.58 41.1396 81.58C42.3796 78.16 45.3596 76.34 45.3596 76.34C45.3596 76.34 45.3596 76.34 45.3596 76.36C45.2396 76.7 42.9996 83.36 44.1796 89.8C44.4396 91.24 45.0796 92.58 46.0396 93.62C46.6996 94.32 47.2196 94.6 47.2196 94.6C47.8396 91.58 50.2796 89.64 50.2796 89.64C50.2396 89.76 50.1996 89.88 50.1796 90C49.7396 91.54 48.2796 97.68 51.0396 102.06C53.0596 104.48 56.6596 105.56 56.6596 105.56C55.0596 100.42 56.3796 93.72 56.3796 93.72C55.8596 109.98 65.0196 110.54 65.0196 110.54C65.0196 110.54 73.1396 109.14 73.6596 93.72C73.6596 93.72 74.3596 101.92 71.1996 107.52C86.1196 105.06 79.7396 89.66 79.7396 89.66C81.0396 92.9 81.6396 95.58 81.7396 97.8C89.6196 90.48 84.6796 76.38 84.6796 76.38C88.7796 80.62 89.0796 84.24 89.0796 84.24C92.1996 75.38 85.9396 64.04 85.9396 64.04C88.2796 65.1 90.1996 67.46 90.1996 67.46C89.8796 62.96 87.7996 58.76 85.9596 55.84C85.6596 55.7 85.3596 55.62 85.0596 55.66ZM64.1996 90.08C65.7396 91.6 68.2796 91.7 68.2796 91.7C61.1796 93.98 58.6596 85.96 58.6596 85.96C64.9796 90.94 71.8396 85.96 71.8396 85.96C68.9396 90.4 64.1996 90.08 64.1996 90.08Z" fill="#D3D3D5"/>
<path d="M77.1199 59.4199C77.1199 59.4199 76.5399 59.9399 75.5799 60.5799C75.6399 61.2199 75.0999 61.9199 74.2799 62.2199C73.6799 62.4399 73.0799 62.3999 72.6799 62.1599C72.1999 62.3599 71.6999 62.5199 71.1799 62.6599C71.5399 64.1599 77.1199 64.4399 77.1199 59.4199Z" fill="white"/>
<path d="M52.3401 39.8399C53.5201 39.8399 55.1401 38.9599 55.6601 37.4799C55.8401 36.9799 55.8601 36.5199 55.7601 36.1599C55.4601 37.1199 54.8401 38.1399 53.6001 38.5399C53.6001 38.5399 54.3801 36.4799 53.5001 35.3799C51.7801 36.0599 50.2201 36.8799 48.8401 37.8399C49.6601 39.0399 50.9201 39.8399 52.3401 39.8399Z" fill="#BB171E"/>
<path d="M46.5201 44.6401L43.3601 31.5201C43.0201 31.3201 42.6801 31.0801 42.3401 30.8401L45.6201 45.0201C45.8801 44.9001 46.1801 44.7601 46.5201 44.6401Z" fill="#E49924"/>
<path d="M47.8603 65.6399C50.6603 70.2399 52.6003 70.3199 50.8803 73.7399C50.8803 73.7399 51.3403 72.2399 50.1403 70.8999C50.1403 70.8999 48.1403 75.0599 50.3803 78.4599C52.1203 74.2399 58.1603 75.0599 58.1603 75.0599C57.6603 74.5399 57.2203 73.4599 57.0203 72.8799C56.4403 72.6799 55.5203 72.5599 54.2603 72.9599C54.2603 72.9599 55.3603 71.2599 57.8203 71.1799C57.8203 71.1799 58.5403 69.3799 61.1803 69.1799C61.1803 69.1799 64.2203 63.7599 61.4603 62.9399C61.4603 62.9399 59.1203 67.5599 54.4003 65.1999C54.4003 65.1999 56.0003 65.4799 57.5403 64.4999C57.5403 64.4999 52.2403 65.7599 52.0403 59.0799C52.0403 59.0799 49.4603 57.4999 47.8803 60.2399C47.8803 60.2399 47.6803 55.6199 51.4203 54.7999C55.8603 53.8399 58.7403 62.3599 63.3803 59.8199C63.3803 59.8199 63.2603 61.5199 62.0003 62.0999C62.0003 62.0999 65.3203 63.0799 62.7003 70.1599C62.6403 70.3199 62.5803 70.4599 62.5203 70.6199C62.5203 70.6199 63.2203 71.3399 63.2603 72.6599C63.2603 72.6599 62.8003 71.3999 61.9403 70.8799C61.9403 70.8799 59.6803 70.3599 59.1403 72.6599C58.6003 74.9599 61.7803 75.8999 62.3403 75.4799C62.3403 75.4799 63.0003 77.2999 65.0003 77.3199C67.0003 77.2999 67.6603 75.4799 67.6603 75.4799C68.2203 75.8999 71.4003 74.9799 70.8603 72.6599C70.3203 70.3599 68.0603 70.8799 68.0603 70.8799C67.2003 71.3799 66.7403 72.6599 66.7403 72.6599C66.8003 71.3399 67.4803 70.6199 67.4803 70.6199C66.5803 68.5199 66.4803 64.7799 66.4803 64.7799C66.8803 67.9799 68.3203 69.7799 68.3203 69.7799C70.6203 69.2599 71.8603 71.9599 71.8603 71.9599C74.4803 71.5999 75.7203 72.9599 75.7203 72.9599C73.2603 72.1999 72.1403 73.3399 72.1403 73.3399C71.6603 74.4399 71.0603 75.1399 70.5003 75.5799C77.9803 74.1799 79.1003 79.1199 79.1003 79.1199C82.1003 75.6199 79.8403 70.8799 79.8403 70.8799C78.6403 72.2199 79.1003 73.7199 79.1003 73.7199C77.3803 70.2999 79.3203 70.2199 82.1203 65.6199C84.5003 61.7199 82.8603 55.0599 82.2003 52.7799C79.4003 51.8399 74.2603 50.8799 65.0003 50.8799C55.7403 50.8799 50.6003 51.8399 47.8003 52.7799C47.1203 55.0799 45.5003 61.7599 47.8603 65.6399ZM78.5803 54.7999C82.3203 55.6199 82.1203 60.2399 82.1203 60.2399C80.5203 57.4999 77.9603 59.0799 77.9603 59.0799C77.7603 65.7799 72.4603 64.4999 72.4603 64.4999C74.0003 65.4799 75.6003 65.1999 75.6003 65.1999C70.8803 67.5599 68.5403 62.9399 68.5403 62.9399C67.5803 62.9199 66.9603 63.8199 66.9603 63.8199C67.2003 62.4399 68.0203 62.0999 68.0203 62.0999C66.7403 61.5199 66.6403 59.8199 66.6403 59.8199C71.2803 62.3599 74.1603 53.8399 78.5803 54.7999Z" fill="#E6BB80"/>
<path d="M73.1799 34.56C73.1799 37.46 75.1799 39.82 77.6599 39.82C77.6799 39.82 77.6799 39.82 77.6999 39.82C78.3399 39.82 78.7999 39.5 79.0999 39.06C77.4799 39.56 76.0399 38.28 76.0399 38.28C77.7199 38.08 78.3199 36.96 78.5399 36.28C78.4999 36.26 78.4599 36.24 78.4199 36.22C76.8199 35.42 75.0599 34.78 73.1999 34.28C73.1799 34.38 73.1799 34.46 73.1799 34.56Z" fill="#BB171E"/>
<path d="M52.4404 82.7199C53.5204 81.3199 55.5204 80.6799 57.9404 81.1999C61.0404 81.8399 63.1204 80.7999 64.1804 79.9999V77.9999C63.8004 77.9199 63.3404 77.7399 62.8404 77.3599C62.8404 77.3599 51.6004 73.8399 52.3604 81.6599C52.3804 81.6599 52.3404 82.1599 52.4404 82.7199Z" fill="#D3D3D5"/>
<path d="M83.3597 33.0601C83.4597 33.5601 83.4997 34.0601 83.4997 34.5601C83.4997 38.2801 80.8797 41.3001 77.6397 41.3001C74.4197 41.3001 71.7797 38.2801 71.7797 34.5601C71.7797 32.9401 72.2797 31.4001 73.1797 30.2001C69.2797 28.0201 66.2397 23.1001 64.9797 20.8201V38.5401L62.3597 26.8801C62.3597 26.8801 60.0997 29.1201 56.7997 30.2001C57.6997 31.4001 58.1997 32.9601 58.1997 34.5601C58.1997 38.2801 55.5797 41.3001 52.3397 41.3001C49.1197 41.3001 46.4797 38.2801 46.4797 34.5601C46.4797 34.0601 46.5197 33.5601 46.6197 33.0601C46.0797 32.8801 45.2997 32.5801 44.4397 32.1401L47.3597 44.3201C50.3597 43.3201 55.6797 42.3601 64.9797 42.3601C78.6797 42.3601 83.7197 44.4201 85.4997 45.6801L88.9997 29.7001C86.9197 31.6801 84.5797 32.6601 83.3597 33.0601Z" fill="#E49924"/>
<path d="M52.8801 59.4199C52.8801 64.4399 58.4601 64.1599 58.8201 62.6599C58.3001 62.5199 57.8001 62.3599 57.3201 62.1599C56.9201 62.3999 56.3201 62.4399 55.7201 62.2199C54.9001 61.9199 54.3601 61.2199 54.4201 60.5799C53.4601 59.9399 52.8801 59.4199 52.8801 59.4199Z" fill="white"/>
<path d="M48.18 45.4399C47.74 45.5799 47.34 45.7199 47 45.8599V51.6999C47.36 51.5799 47.76 51.4399 48.18 51.3199V45.4399Z" fill="#E49924"/>
<path d="M67.1596 77.3599C66.6796 77.7399 66.1996 77.9199 65.8196 77.9999V79.9799C66.8796 80.7799 68.9396 81.8199 72.0596 81.1799C74.4796 80.6799 76.4996 81.2999 77.5596 82.6999C77.6596 82.1599 77.6196 81.6599 77.6196 81.6599C78.3996 73.8399 67.1596 77.3599 67.1596 77.3599Z" fill="#D3D3D5"/>
<path d="M85.3203 52.7999V47.1799C84.7403 46.5799 81.0603 43.6799 65.0003 43.6799C57.0203 43.6799 52.1003 44.3999 49.0803 45.1999V51.0999C52.2603 50.2999 57.2403 49.6399 65.0003 49.6399C78.2003 49.6199 83.3603 51.5199 85.3203 52.7999Z" fill="#E49924"/>
<path d="M68.0204 62.0999C68.0204 62.0999 67.2004 62.4399 66.9604 63.8199C66.9604 63.8199 67.5604 62.8999 68.5404 62.9399C68.5404 62.9399 70.8804 67.5599 75.6004 65.1999C75.6004 65.1999 74.0004 65.4799 72.4604 64.4999C72.4604 64.4999 77.7604 65.7599 77.9604 59.0799C77.9604 59.0799 80.5404 57.4999 82.1204 60.2399C82.1204 60.2399 82.3204 55.6199 78.5804 54.7999C74.1404 53.8399 71.2604 62.3599 66.6204 59.8199C66.6404 59.8199 66.7604 61.5199 68.0204 62.0999ZM72.7004 62.1599C73.1004 62.3999 73.7004 62.4399 74.3004 62.2199C75.1204 61.9199 75.6604 61.2199 75.6004 60.5799C76.5404 59.9399 77.1404 59.4199 77.1404 59.4199C77.1404 64.4399 71.5604 64.1599 71.2004 62.6599C71.7004 62.5199 72.2204 62.3399 72.7004 62.1599Z" fill="black"/>
<path d="M86.54 54.18V47.24L91.7 23.98L89.74 26.78C87.18 30.42 83.14 31.64 82.36 31.86L81.64 32.06L81.86 32.8C82.04 33.38 82.12 33.98 82.12 34.58C82.12 35.28 82 35.94 81.8 36.54C81.78 36.54 81.78 36.52 81.76 36.52C79.34 34.88 76.52 33.64 73.42 32.86C73.68 31.96 74.16 31.16 74.8 30.52L75.6 29.74L74.58 29.3C69.56 27.14 65.64 19.08 65.6 19L64.98 17.72L64.36 19C64.32 19.08 60.4 27.16 55.38 29.3L54.36 29.74L55.16 30.52C55.8 31.14 56.28 31.96 56.54 32.86C53.46 33.66 50.62 34.9 48.2 36.52C48.18 36.52 48.18 36.54 48.16 36.54C47.96 35.94 47.84 35.26 47.84 34.58C47.84 33.98 47.92 33.38 48.1 32.8L48.32 32.06L47.6 31.86C46.82 31.66 42.78 30.42 40.22 26.78L38.26 23.98L43.42 47.24V54.18C43.42 54.44 43.56 54.7 43.78 54.8C37.42 61.54 38.52 71.52 38.52 71.52C39.36 69.02 42.2 66.8 42.2 66.8C35.6 76.66 41.46 88.54 41.46 88.54C41.4 85.88 42.3 83.34 42.98 81.84C39.54 92.72 45.84 97.24 47.74 98.72C48.5 104.6 55.98 107.48 58.32 107.54C59.66 109.2 61.7 111.46 64.96 112.32C67.54 111.42 69.4 110 70.74 108.34C73.1 108.28 80.68 106.56 81.8 99.54C83.7 98.06 88.96 92.82 86.94 81.86C87.6 83.36 88.48 84.6 88.4 87.26C88.4 87.26 94.84 77.92 87.7 66.8C87.7 66.8 90.04 67.94 90.88 70.44C90.88 70.44 91.66 62.34 86.12 54.82C86.4 54.7 86.54 54.44 86.54 54.18ZM78.42 36.22C78.46 36.24 78.5 36.26 78.54 36.28C78.34 36.96 77.74 38.08 76.04 38.28C76.04 38.28 77.48 39.56 79.1 39.06C78.8 39.5 78.32 39.82 77.7 39.82C77.68 39.82 77.68 39.82 77.66 39.82C75.2 39.82 73.18 37.46 73.18 34.56C73.18 34.46 73.18 34.38 73.18 34.28C75.06 34.78 76.82 35.42 78.42 36.22ZM53.5 35.36C54.38 36.46 53.6 38.52 53.6 38.52C54.84 38.14 55.46 37.12 55.76 36.14C55.86 36.5 55.84 36.94 55.66 37.46C55.16 38.94 53.54 39.82 52.34 39.82C50.92 39.82 49.66 39.04 48.84 37.82C50.22 36.88 51.8 36.04 53.5 35.36ZM42.34 30.84C42.68 31.08 43.02 31.32 43.36 31.52L46.52 44.64C46.18 44.78 45.9 44.9 45.64 45.02L42.34 30.84ZM90.18 67.66C90.18 67.66 88.26 65.3 85.92 64.24C85.92 64.24 92.16 75.58 89.06 84.44C89.06 84.44 88.76 80.82 84.66 76.58C84.66 76.58 89.6 90.7 81.72 98C81.64 95.8 81.04 93.12 79.72 89.86C79.72 89.86 84.5 104.32 71.9 106.62C75.06 101.02 73.62 93.94 73.62 93.94C73.1 109.36 64.98 110.54 64.98 110.54C64.98 110.54 55.52 109.68 56.34 93.94C56.34 93.94 56.32 94.04 56.3 94.2C56.32 94.08 56.32 94 56.34 93.94C56.34 93.94 54.32 99.8 55.92 104.94C55.92 104.94 53.02 104.72 51 102.3C48.24 97.92 49.7 91.8 50.14 90.24C50.18 90.12 50.22 90 50.24 89.88C50.24 89.88 47.78 91.82 47.18 94.84C47.18 94.84 46.66 94.56 46 93.86C45.02 92.82 44.4 91.48 44.14 90.04C42.96 83.58 45.22 76.92 45.32 76.6C45.32 76.6 45.32 76.6 45.32 76.58C45.32 76.58 42.36 78.38 41.1 81.82C41.1 81.82 40.18 73.02 42.88 66.28C43.38 65.1 43.76 64.4 43.76 64.4C41.42 65.46 39.78 67.66 39.78 67.66C39.92 65.62 40.26 61.38 43.14 57.88C40.88 61.94 41.64 64.94 41.64 64.94C43.06 63.52 44.9 63.04 44.9 63.04C43.24 68.06 44.48 70.94 44.48 70.94C45.78 68.74 46.42 68.7 46.42 68.7C46.76 70.18 47.82 70.6 47.82 70.6C45.54 80 50.58 82.76 50.58 82.76C50.18 86.76 52.32 88.56 52.32 88.56C52.32 88.56 51.22 84.24 54.22 82.68C56.38 81.56 59.28 82.86 61.96 82.22C62.82 82.64 65.2 83.52 68.34 82.3C70.9 82.74 73.64 81.62 75.68 82.68C78.68 84.22 77.58 88.56 77.58 88.56C78.38 86.84 78.52 85.32 78.18 84.1C78.38 83.7 78.64 82.94 78.7 81.62C78.7 81.62 83.4 78.32 80.74 70.14C80.74 70.14 82.28 69.18 83.34 66.54C84.12 67.6 85.54 69.82 85.96 72.52C85.96 72.52 86.32 68.1 83.9 64.76C84.34 62.92 84.5 60.54 84.06 57.48C86.46 59.42 87.32 62.66 87.32 62.66C87.7 59.3 85.02 55.9 85.02 55.9C85.34 55.86 85.64 55.94 85.9 56.04C87.8 58.96 89.86 63.16 90.18 67.66ZM47.8 52.82C50.6 51.88 55.74 50.92 65 50.92C74.26 50.92 79.4 51.88 82.2 52.82C82.86 55.1 84.5 61.76 82.12 65.66C79.32 70.26 77.38 70.34 79.1 73.76C79.1 73.76 78.64 72.26 79.84 70.92C79.84 70.92 82.12 75.64 79.1 79.16C79.1 79.16 77.98 74.22 70.5 75.62C71.08 75.18 71.66 74.48 72.14 73.38C72.14 73.38 73.26 72.24 75.72 73C75.72 73 74.5 71.64 71.86 72C71.86 72 70.62 69.32 68.32 69.82C68.32 69.82 66.88 68 66.48 64.82C66.48 64.82 66.6 68.56 67.48 70.66C67.48 70.66 66.78 71.38 66.74 72.7C66.74 72.7 67.2 71.44 68.06 70.92C68.06 70.92 70.32 70.4 70.86 72.7C71.4 75 68.22 75.94 67.66 75.52C67.66 75.52 67 77.34 65 77.36C63 77.34 62.34 75.52 62.34 75.52C61.78 75.94 58.6 75.02 59.14 72.7C59.68 70.4 61.94 70.92 61.94 70.92C62.8 71.42 63.26 72.7 63.26 72.7C63.2 71.38 62.52 70.66 62.52 70.66C62.58 70.52 62.64 70.36 62.7 70.2C65.32 63.14 62 62.14 62 62.14C63.28 61.56 63.38 59.86 63.38 59.86C58.74 62.4 55.86 53.88 51.42 54.84C47.68 55.66 47.88 60.28 47.88 60.28C49.48 57.54 52.04 59.12 52.04 59.12C52.24 65.82 57.54 64.54 57.54 64.54C56 65.48 54.4 65.2 54.4 65.2C59.12 67.56 61.46 62.94 61.46 62.94C64.22 63.76 61.18 69.18 61.18 69.18C58.54 69.38 57.82 71.18 57.82 71.18C55.36 71.28 54.26 72.96 54.26 72.96C55.52 72.56 56.42 72.68 57.02 72.88C57.22 73.46 57.66 74.54 58.16 75.06C58.16 75.06 52.12 74.24 50.38 78.46C48.14 75.06 50.14 70.9 50.14 70.9C51.34 72.24 50.88 73.74 50.88 73.74C52.6 70.32 50.66 70.24 47.86 65.64C45.5 61.76 47.12 55.08 47.8 52.82ZM46.98 51.7V45.86C47.32 45.72 47.72 45.58 48.16 45.44V51.32C47.74 51.44 47.34 51.58 46.98 51.7ZM49.08 51.08V45.18C52.08 44.38 57 43.66 65 43.66C81.06 43.66 84.72 46.56 85.32 47.16V52.8C83.36 51.54 78.2 49.62 65 49.62C57.24 49.62 52.28 50.28 49.08 51.08ZM77.56 82.72C76.48 81.32 74.48 80.68 72.06 81.2C68.96 81.84 66.88 80.8 65.82 80V78C66.2 77.92 66.66 77.74 67.16 77.36C67.16 77.36 78.4 73.84 77.64 81.66C77.62 81.66 77.66 82.16 77.56 82.72ZM62.84 77.36C63.32 77.74 63.8 77.92 64.18 78V79.98C63.12 80.78 61.06 81.82 57.94 81.18C55.52 80.68 53.5 81.3 52.44 82.7C52.34 82.16 52.38 81.66 52.38 81.66C51.6 73.84 62.84 77.36 62.84 77.36ZM55.7 62.22C56.3 62.44 56.9 62.4 57.3 62.16C57.78 62.36 58.28 62.52 58.8 62.66C58.44 64.16 52.86 64.44 52.86 59.42C52.86 59.42 53.44 59.94 54.4 60.58C54.34 61.22 54.88 61.92 55.7 62.22ZM85.52 45.68C83.72 44.42 78.7 42.36 65 42.36C55.7 42.36 50.4 43.3 47.38 44.32L44.46 32.14C45.34 32.58 46.1 32.88 46.64 33.06C46.54 33.56 46.5 34.06 46.5 34.56C46.5 38.28 49.12 41.3 52.36 41.3C55.58 41.3 58.22 38.28 58.22 34.56C58.22 32.94 57.72 31.4 56.82 30.2C60.14 29.12 62.38 26.88 62.38 26.88L65 38.54V20.82C66.26 23.1 69.3 28.04 73.2 30.2C72.3 31.4 71.8 32.96 71.8 34.56C71.8 38.28 74.42 41.3 77.66 41.3C80.88 41.3 83.52 38.28 83.52 34.56C83.52 34.06 83.48 33.56 83.38 33.06C84.6 32.66 86.94 31.68 89.06 29.72L85.52 45.68Z" fill="black"/>
<path d="M58.6604 86.2C58.6604 86.2 61.1804 94.22 68.2804 91.94C68.2804 91.94 65.7204 91.84 64.2004 90.32C64.2004 90.32 68.9404 90.64 71.8404 86.22C71.8204 86.2 64.9804 91.18 58.6604 86.2Z" fill="black"/>
<path d="M65.6399 40.9999V23.6799C65.6399 23.6799 68.5599 28.6199 71.8399 30.4799C71.8399 30.4799 69.1599 35.8999 72.7799 39.8399C76.3999 43.7799 81.0399 41.0199 81.0399 41.0199C81.0399 41.0199 84.5199 39.4399 84.2799 33.5799C84.2799 33.5799 86.8399 32.6799 87.8599 31.5799L84.8999 44.4199C84.8999 44.4199 76.0599 41.7199 65.6399 41.8799V40.9999Z" fill="#F5B219"/>
<path d="M55.36 41.2599C55.36 41.2599 58.62 40.0799 59.14 36.0999C59.14 36.0999 61.44 36.5799 61.92 34.6599L63.38 36.0999L64.24 41.5199C64.24 41.5199 59.34 41.0799 52.46 42.7199C52.48 42.6999 54.58 41.9999 55.36 41.2599Z" fill="#F5B219"/>
<path d="M55.5399 44.6599C55.2399 44.6999 54.9399 44.7199 54.6399 44.7599V49.5399C54.9399 49.4999 55.2399 49.4799 55.5399 49.4399V44.6599Z" fill="#F5B219"/>
<path d="M80.8199 45.74C77.0799 44.74 71.7399 44.24 64.9999 44.24C61.8999 44.24 59.1199 44.34 56.6399 44.56V49.36C59.1399 49.16 61.9199 49.06 64.9999 49.06C74.1399 49.06 79.5199 49.96 82.6999 51.02V46.36C82.1999 46.14 81.5799 45.94 80.8199 45.74Z" fill="#F5B219"/>
<path d="M81.0803 46.1399V50.2999C81.3803 50.3799 81.6803 50.4799 81.9603 50.5799V46.4599C81.7003 46.3599 81.4003 46.2599 81.0803 46.1399Z" fill="white"/>
<path d="M77.1001 45.1599V49.4199C78.1401 49.5999 79.1001 49.7799 80.0001 50.0199V45.8199C79.1201 45.5599 78.1601 45.3399 77.1001 45.1599Z" fill="white"/>
<path d="M83.8 46.8201V51.4001C84.16 51.5401 84.5 51.7001 84.78 51.8401V47.4201C84.6 47.2801 84.3 47.0601 83.8 46.8201Z" fill="#F5B219"/>
<path d="M84.7804 33.9C84.7804 33.9 86.2204 33.64 87.2604 32.72L84.6204 43.66L85.8404 34.26C85.8604 34.28 85.1204 34.3 84.7804 33.9Z" fill="white"/>
<path d="M66.2795 39.12V25.72C66.2795 25.72 68.1995 29.42 70.8395 30.52C70.8395 30.52 68.9595 30.58 67.4595 29.68L66.2795 39.12Z" fill="white"/>
<path d="M50.1201 61.04C50.1201 61.04 50.7 66.4 55.84 66.98C55.84 66.98 58.32 67.18 59.6 66.28C59.6 66.28 59.8201 68.22 59.0601 68.74C59.0601 68.74 56.62 69.1 56.34 70.08C56.34 70.08 53.86 69.74 53.3 71.42C53.3 71.42 51.96 69.98 51.96 68.72C51.96 68.72 49.1 65.98 48.8 63.02C48.8 63 49.3401 61.3 50.1201 61.04Z" fill="#F8D390"/>
<path d="M56.9204 54.72C56.9204 54.72 59.6204 59.86 63.5004 58.4C63.5004 58.4 65.0604 59.62 64.5004 61.82L65.0004 62.42V72.82C65.0004 72.82 64.4604 73.36 63.8004 73.3C63.8004 73.3 63.9404 75.08 63.0404 75.42C63.0404 75.42 64.9404 78.04 67.0604 75.64C67.0604 75.64 67.4204 74.94 67.2804 74.36C67.2804 74.36 68.3404 75.48 69.7804 74.54C71.2204 73.6 69.9004 71.76 69.9004 71.76C69.9004 71.76 69.3204 71.26 68.4604 71.4C68.4604 71.4 67.2404 71.76 66.7604 73.26C66.7604 73.26 66.1404 72.18 66.8604 70.6C66.8604 70.6 65.3804 65.74 66.2404 62C66.2404 62 65.3404 60.04 66.0604 58.86C66.0604 58.86 69.2404 60.2 71.2004 57.72C73.1604 55.22 75.7004 53.42 77.9204 53.48V52.8C77.9204 52.8 68.8804 51.72 56.6604 52.28V54.32L56.9204 54.72Z" fill="#F8D390"/>
<path d="M79.6796 60.3C79.6796 60.3 77.5196 70.44 68.8196 65C68.8196 65 68.8996 67.8201 69.4596 68.5401C69.4596 68.5401 71.8596 68.92 72.5396 70.46C72.5396 70.46 75.1596 70.36 76.8996 73.7C76.8996 73.7 74.2396 73.14 72.7596 73.7C72.7596 73.7 72.5996 74.5 72.3596 74.66C72.3596 74.66 77.6596 74.3 79.2596 77.12C79.2596 77.12 80.4596 74.82 79.8996 73.08C79.8996 73.08 79.5996 74.52 79.0996 74.78C79.0996 74.78 76.9196 72.18 78.3196 69.46C79.7196 66.72 82.6196 65.06 81.6396 61.7L79.6796 60.3Z" fill="#F8D390"/>
<path d="M86.5001 67.5801C86.5001 67.5801 89.5801 74.4801 89.0401 81.2801C89.0401 81.2801 86.4601 75.4801 83.3801 72.9401C83.3801 72.9401 86.4601 73.6801 87.5801 75.7401C87.5801 75.7201 87.5201 71.0801 86.5001 67.5801Z" fill="#F5F5F6"/>
<path d="M82.9196 75.74C82.9196 75.74 85.2996 82.8 85.0596 90.4C85.0596 90.4 84.2596 86.32 83.3796 84.82C83.3796 84.82 84.2196 89.46 83.9996 92.86C83.9996 92.86 83.1996 95.1 82.4996 95.66C82.4996 95.66 81.6996 89.66 79.8596 87.12C79.8596 87.12 81.1796 84.38 80.4796 81.98C80.4796 81.98 82.9196 78.96 82.9196 75.74Z" fill="#F5F5F6"/>
<path d="M70.1399 90.2C70.1399 90.2 73.4599 88.86 74.2199 86.2C74.2199 86.2 75.7199 86.28 76.0999 85.7C76.0999 85.7 76.9199 88.14 76.5399 91.74C76.5399 91.74 77.9799 91.2 78.4199 90.14C78.4199 90.14 80.6599 100.16 74.2799 104.48C74.2799 104.48 76.6199 95.28 73.2999 91.44C73.2999 91.42 71.4199 91.94 70.1399 90.2Z" fill="#F5F5F6"/>
<path d="M70.7605 77.1401C70.7605 77.1401 72.7405 76.9001 74.2605 77.4001L74.4405 79.4001L74.9405 77.6001C74.9405 77.6001 76.4605 78.2001 76.9805 79.8001L76.8205 81.5201C76.8205 81.5201 76.1005 80.6001 74.4405 80.4401C72.8005 80.3001 71.7005 80.9401 70.7405 80.5201V77.1401H70.7605Z" fill="#F5F5F6"/>
<path d="M61.96 86.1999C61.96 86.1999 67.04 86.8199 68.82 84.4199C68.82 84.4199 69.66 85.7599 70.98 85.3399C70.98 85.3399 66.66 88.9799 61.96 86.1999Z" fill="#F5F5F6"/>
<path d="M72.6401 92.8C72.3801 95.24 71.0801 98.3401 71.0801 98.3401C71.4801 95.9001 71.2401 93.1 71.2401 93.1C70.9001 93.24 70.0201 93.3401 70.0201 93.3401C69.6401 94.7401 67.8201 95.5 67.8201 95.5L66.6601 101.2L66.5601 95.3401C67.8801 94.9001 68.3401 93.58 68.3401 93.58C67.2801 94.24 65.2201 94.22 65.2201 94.22C65.2201 94.22 63.5001 94.24 62.4801 93.72C62.4801 93.72 63.2401 95.16 64.5401 95.56L64.2201 103.8C64.2201 103.8 61.4601 101.8 60.8401 98.4401C60.8401 98.4401 60.5401 106.1 65.2201 108.66C66.6201 108.56 68.1001 107.16 68.1001 107.16C69.4601 105.42 70.1201 98.38 70.1201 98.38C70.6801 100.5 70.1201 103.92 70.1201 103.92C72.7201 99.8 72.6401 92.8 72.6401 92.8Z" fill="#F5F5F6"/>
</g>
<defs>
<clipPath id="clip0_1_31288">
<rect width="130" height="130" fill="white"/>
</clipPath>
</defs>
</svg>
